<?xml version="1.0" standalone="no"?>
<!DOCTYPE svg PUBLIC "-//W3C//DTD SVG 20010904//EN"
 "http://www.w3.org/TR/2001/REC-SVG-20010904/DTD/svg10.dtd">
<svg version="1.0" xmlns="http://www.w3.org/2000/svg"
 width="1278.000000pt" height="1278.000000pt" viewBox="0 0 1278.000000 1278.000000"
 preserveAspectRatio="xMidYMid meet">
<metadata>
Created by potrace 1.14, written by Peter Selinger 2001-2017
</metadata>
<g transform="translate(0.000000,1278.000000) scale(0.100000,-0.100000)"
fill="#000000" stroke="none">
<path d="M6108 12776 c-1 -2 -50 -6 -108 -10 -58 -4 -121 -8 -140 -10 -19 -2
-64 -7 -100 -11 -111 -11 -140 -15 -330 -46 -847 -139 -1646 -453 -2375 -933
-211 -139 -520 -372 -651 -491 -6 -5 -44 -39 -85 -75 -103 -91 -378 -366 -480
-480 -555 -620 -945 -1269 -1259 -2095 -190 -500 -337 -1195 -377 -1785 -10
-149 -10 -740 0 -895 63 -966 355 -1937 834 -2772 498 -870 1173 -1596 1989
-2141 328 -218 630 -380 1061 -568 318 -139 875 -303 1248 -368 91 -16 288
-45 340 -51 33 -4 70 -8 82 -10 24 -4 112 -12 268 -25 102 -8 834 -6 870 3 11
3 56 8 100 11 44 4 94 9 110 11 17 3 48 7 70 9 259 27 662 110 965 197 839
243 1671 699 2320 1268 41 36 90 80 109 96 82 70 396 390 494 502 729 837
1208 1780 1451 2853 82 362 77 266 74 1466 l-3 1069 -37 175 c-202 949 -541
1733 -1075 2486 -142 199 -288 381 -478 594 -111 124 -392 397 -535 520 -145
124 -184 156 -316 256 -595 453 -1305 812 -2004 1013 -261 75 -607 150 -800
175 -19 2 -89 12 -155 21 -215 29 -434 42 -757 43 -174 0 -318 -1 -320 -2z"/>
</g>
</svg>
